<?xml version="1.0" standalone="no"?>
<!DOCTYPE svg PUBLIC "-//W3C//DTD SVG 20010904//EN"
 "http://www.w3.org/TR/2001/REC-SVG-20010904/DTD/svg10.dtd">
<svg version="1.0" xmlns="http://www.w3.org/2000/svg"
 width="421.000000pt" height="421.000000pt" viewBox="0 0 421.000000 421.000000"
 preserveAspectRatio="xMidYMid meet">
<metadata>
Created by potrace 1.14, written by Peter Selinger 2001-2017
</metadata>
<g transform="translate(0.000000,421.000000) scale(0.100000,-0.100000)"
fill="#000000" stroke="none">
<path d="M1965 3404 c-135 -30 -287 -107 -416 -210 -109 -87 -175 -193 -233
-373 -59 -184 -70 -248 -72 -451 -3 -175 -8 -260 -21 -304 -4 -15 -10 -8 -24
30 -21 55 -61 100 -79 89 -8 -5 2 -21 29 -49 46 -47 71 -113 71 -193 0 -29 5
-87 11 -129 11 -71 10 -78 -6 -91 -18 -12 -17 -13 7 -13 25 0 29 -7 63 -112
71 -215 170 -370 355 -557 210 -211 395 -293 556 -246 139 40 293 140 455 293
122 116 184 197 251 332 29 58 54 107 56 110 2 2 7 -1 11 -9 6 -10 10 -9 15 4
3 10 12 15 21 11 10 -4 15 1 15 14 0 11 6 20 13 21 6 0 1 5 -12 10 -18 7 -22
14 -18 32 77 294 92 332 155 376 30 21 44 51 23 51 -18 0 -72 -53 -91 -89
l-19 -36 -2 55 c-4 84 -1 114 21 220 36 178 22 467 -31 645 -35 118 -75 182
-179 285 -141 142 -269 220 -433 266 -78 22 -117 27 -257 30 -123 3 -183 0
-235 -12z m-17 -168 c87 -66 155 -93 276 -108 116 -15 201 -2 288 43 35 18 75
38 90 46 51 26 101 1 204 -101 104 -103 150 -185 184 -321 24 -98 52 -493 40
-575 -8 -59 -27 -221 -35 -310 -11 -124 -31 -213 -72 -327 -32 -92 -92 -153
-148 -153 -42 0 -64 10 -120 55 -76 62 -117 76 -249 86 -66 4 -141 9 -166 9
l-45 1 33 14 c22 9 38 27 48 51 20 47 14 81 -6 39 -41 -84 -210 -85 -261 -1
l-19 31 0 -33 c0 -24 9 -42 29 -63 36 -35 35 -35 -116 -13 -148 22 -202 16
-298 -35 -102 -53 -147 -55 -198 -8 -78 71 -116 226 -124 513 l-6 191 41 159
c22 87 55 222 72 299 45 202 96 304 204 411 85 84 201 154 256 154 17 0 53
-20 98 -54z m27 -1720 c72 -8 207 -18 300 -21 94 -3 186 -10 205 -15 50 -12
-246 -12 -390 0 -158 13 -335 41 -319 50 7 5 26 6 43 4 17 -2 90 -10 161 -18z
m-197 -129 c45 -68 187 -163 267 -181 l30 -6 -25 15 c-25 16 -24 16 15 9 22
-4 56 -6 75 -5 39 2 32 -14 -10 -23 -14 -3 7 -3 45 0 114 8 255 83 310 166 16
23 37 54 47 67 l18 24 15 -36 c21 -51 19 -94 -9 -152 -42 -92 -189 -201 -266
-198 -19 1 -89 7 -155 14 -66 6 -131 11 -145 10 -14 -1 -38 -2 -55 -3 -45 -2
-99 28 -169 96 -47 46 -68 75 -84 119 -28 74 -28 139 -1 184 l21 34 25 -48
c14 -26 37 -65 51 -86z m422 42 c58 -6 107 -13 109 -15 14 -13 -24 -19 -117
-18 -123 2 -239 18 -285 39 -30 14 -25 15 78 10 61 -3 157 -10 215 -16z"/>
<path d="M1628 2617 c-73 -27 -122 -58 -138 -87 -13 -24 -13 -67 0 -75 5 -3
47 10 92 31 77 34 88 36 158 31 47 -3 93 -13 123 -27 27 -12 55 -19 62 -16 8
3 19 23 26 45 10 33 9 43 -2 57 -25 30 -93 53 -175 59 -68 5 -88 2 -146 -18z"/>
<path d="M2517 2575 c-26 -7 -54 -19 -62 -25 -19 -16 -19 -70 -2 -95 13 -17
16 -17 77 4 118 39 204 24 306 -53 52 -40 74 -36 74 13 0 53 -68 120 -158 154
-51 20 -166 21 -235 2z"/>
<path d="M1604 2306 c-74 -34 -134 -108 -134 -163 0 -22 17 -6 24 22 9 36 52
82 106 114 60 35 164 37 226 4 55 -29 111 -96 129 -153 8 -28 14 -36 14 -22 2
68 -81 170 -165 202 -73 27 -137 26 -200 -4z"/>
<path d="M1670 2252 c-47 -23 -80 -75 -80 -126 0 -23 4 -47 9 -55 5 -7 47 -21
93 -30 72 -15 88 -16 104 -4 24 18 34 16 34 -4 1 -14 6 -12 26 11 23 26 26 36
22 88 -3 44 -10 64 -29 84 -52 55 -115 68 -179 36z m39 -46 c14 -17 -1 -56
-22 -56 -31 0 -51 53 -24 63 22 9 34 7 46 -7z"/>
<path d="M2522 2245 c-78 -24 -152 -99 -167 -170 -5 -21 1 -15 20 22 50 97
138 149 240 141 33 -3 75 -13 93 -22 51 -26 100 -82 119 -135 18 -51 38 -61
27 -13 -35 145 -182 224 -332 177z"/>
<path d="M2498 2170 c-50 -42 -68 -113 -41 -167 l18 -38 85 3 c47 2 91 9 99
15 11 9 15 9 18 0 7 -20 31 -15 44 8 6 12 12 43 13 69 1 37 -5 54 -27 84 -34
44 -61 56 -125 56 -38 0 -55 -6 -84 -30z m66 -35 c9 -25 -5 -45 -30 -45 -26 0
-40 20 -30 45 3 8 16 15 30 15 13 0 26 -7 30 -15z"/>
<path d="M2355 1182 c-22 -14 -65 -37 -95 -50 -30 -13 -42 -20 -25 -17 39 8
105 41 141 71 38 31 29 29 -21 -4z"/>
<path d="M1964 1146 c11 -9 24 -16 30 -16 12 0 7 5 -24 19 -24 11 -24 11 -6
-3z"/>
</g>
</svg>
